<?xml version="1.0" encoding="UTF-8" standalone="no"?><!DOCTYPE svg PUBLIC "-//W3C//DTD SVG 1.1//EN" "http://www.w3.org/Graphics/SVG/1.1/DTD/svg11.dtd"><svg width="100%" height="100%" viewBox="0 0 73 135" version="1.1" xmlns="http://www.w3.org/2000/svg" xmlns:xlink="http://www.w3.org/1999/xlink" xml:space="preserve" xmlns:serif="http://www.serif.com/" style="fill-rule:evenodd;clip-rule:evenodd;stroke-linejoin:round;stroke-miterlimit:1.41421;"><path d="M69.052,33.584l-0.366,-0.034c-10.003,-1.9 -14.391,-2.484 -24.341,-1.641c-1.1,0.128 -2.018,-0.706 -2.112,-1.781c-0.094,-1.075 0.703,-2.019 1.778,-2.109c10.397,-0.891 15.225,-0.241 25.406,1.697c1.06,0.2 1.757,1.221 1.553,2.281c-0.178,0.937 -0.996,1.587 -1.918,1.587Z" style="fill:#2a9d8e;fill-rule:nonzero;"/><path d="M69.052,64.178l-0.366,-0.034c-9.997,-1.903 -14.381,-2.494 -24.341,-1.644c-1.1,0.131 -2.021,-0.703 -2.112,-1.778c-0.094,-1.075 0.703,-2.022 1.778,-2.113c10.406,-0.89 15.228,-0.237 25.406,1.697c1.06,0.203 1.757,1.225 1.553,2.285c-0.178,0.934 -0.996,1.587 -1.918,1.587Z" style="fill:#2a9d8e;fill-rule:nonzero;"/><path d="M69.052,94.772l-0.366,-0.035c-10.003,-1.9 -14.391,-2.487 -24.341,-1.643c-1.1,0.128 -2.018,-0.703 -2.112,-1.778c-0.094,-1.075 0.703,-2.022 1.778,-2.113c10.397,-0.887 15.225,-0.241 25.406,1.697c1.06,0.203 1.757,1.225 1.553,2.284c-0.178,0.935 -0.996,1.588 -1.918,1.588Z" style="fill:#2a9d8e;fill-rule:nonzero;"/><path d="M6.433,28.984l11.653,-11.5c0.956,-0.943 1.419,-2.25 1.269,-3.584c-0.153,-1.366 -0.916,-2.566 -2.094,-3.297l-0.234,-0.25c-0.041,-0.491 0.559,-1.803 2.387,-3.422c0.728,-0.647 1.316,-0.906 1.828,-0.906c0.55,0 1.01,0.303 1.457,0.75c2.678,2.816 6.65,3.875 10.378,2.772l1.34,-0.4c0.828,-0.244 1.397,-1.006 1.397,-1.872l0,-2.781c0,-0.647 1.175,-0.647 1.175,0l0,0.037l0.138,7.416c-0.903,-0.331 -1.907,-0.491 -3.022,-0.419c-2.888,0.213 -5.36,2.753 -5.781,5.703l-18.213,12.519c-2.394,1.528 -4.422,3.487 -6.022,5.825l-0.175,0.253c-0.219,-2.528 0.703,-5.05 2.519,-6.844Zm61.466,-21.456l0.328,0.134c-1.969,5.991 -2.153,11.525 -0.557,16.46c-5.203,-0.972 -11.043,-1.844 -17.225,-1.844c-2.99,0 -6.059,0.203 -9.171,0.7l-0.316,-15.331c10.481,-1.791 19.091,-1.819 26.941,-0.119Zm-66.735,33.494c0.194,0.74 0.8,1.297 1.553,1.431l0.338,0.028c0.634,0 1.24,-0.312 1.609,-0.847l2.644,-3.85c1.306,-1.903 2.956,-3.497 4.959,-4.778l19.057,-13.097c0.556,-0.381 0.875,-1.022 0.846,-1.693c-0.059,-1.322 1.044,-2.704 2.222,-2.791c1.291,-0.122 2.319,0.569 2.844,1.312l0.138,6.588c0.021,1.062 0.506,2.059 1.318,2.734c0.832,0.691 1.919,0.985 2.994,0.807c9.197,-1.497 18.125,-0.25 25.647,1.165l0.697,0.066c1.05,0 2.04,-0.447 2.747,-1.26c0.862,-0.996 1.131,-2.393 0.703,-3.646c-1.46,-4.257 -1.31,-8.935 0.456,-14.31c0.353,-1.075 0.266,-2.175 -0.247,-3.106c-0.387,-0.7 -1.197,-1.625 -2.903,-2.05c-8.272,-1.794 -17.225,-1.778 -27.972,0.006c-0.365,-2.115 -2.197,-3.731 -4.412,-3.731c-2.478,0 -4.494,2.016 -4.494,4.494l0,1.325c-2.288,0.662 -4.731,-0.003 -6.413,-1.772c-2.562,-2.566 -5.806,-2.581 -8.671,-0.041c-2.554,2.263 -3.863,4.635 -3.691,6.678c0.116,1.338 0.853,2.488 2.072,3.244l0.269,0.409l-0.132,0.366l-11.653,11.503c-2.837,2.797 -4.172,6.822 -3.531,10.96l1.006,3.856Z" style="fill:#232d6a;fill-rule:nonzero;"/><path d="M68.227,38.253c-1.969,5.994 -2.153,11.528 -0.557,16.463c-5.2,-0.972 -11.04,-1.844 -17.225,-1.844c-2.987,0 -6.056,0.203 -9.171,0.697l-0.316,-15.328c10.481,-1.791 19.094,-1.819 26.944,-0.119l0.328,0.131l-0.003,0Zm-34.122,3.866c-2.888,0.215 -5.36,2.756 -5.781,5.706l-18.213,12.519c-2.391,1.525 -4.419,3.484 -6.022,5.822l-0.175,0.253c-0.219,-2.525 0.703,-5.05 2.519,-6.841l11.653,-11.5c0.956,-0.944 1.419,-2.25 1.269,-3.587c-0.153,-1.366 -0.919,-2.566 -2.094,-3.291l-0.234,-0.256c-0.041,-0.488 0.559,-1.803 2.387,-3.419c0.728,-0.647 1.319,-0.906 1.828,-0.906c0.55,0 1.01,0.3 1.457,0.747c2.675,2.815 6.65,3.878 10.375,2.771l1.34,-0.393c0.828,-0.247 1.4,-1.01 1.4,-1.875l0,-2.782c0,-0.646 1.175,-0.646 1.175,0l0,0.038l0.138,7.416c-0.903,-0.332 -1.907,-0.497 -3.022,-0.422Zm34.681,-7.8c-8.272,-1.794 -17.225,-1.782 -27.972,0.003c-0.365,-2.113 -2.197,-3.728 -4.412,-3.728c-2.478,0 -4.494,2.015 -4.494,4.493l0,1.325c-2.288,0.666 -4.731,-0.006 -6.413,-1.771c-2.562,-2.569 -5.806,-2.575 -8.671,-0.041c-2.554,2.259 -3.863,4.631 -3.691,6.678c0.116,1.334 0.85,2.488 2.072,3.244l0.269,0.406l-0.132,0.369l-11.653,11.5c-2.837,2.8 -4.172,6.825 -3.531,10.962l1.006,3.857c0.194,0.74 0.8,1.296 1.553,1.431l0.338,0.028c0.634,0 1.24,-0.313 1.609,-0.847l2.644,-3.85c1.306,-1.906 2.959,-3.5 4.959,-4.778l19.057,-13.097c0.556,-0.381 0.875,-1.022 0.846,-1.697c-0.059,-1.319 1.044,-2.703 2.222,-2.79c1.291,-0.122 2.319,0.571 2.844,1.315l0.138,6.588c0.021,1.062 0.506,2.056 1.318,2.734c0.828,0.688 1.922,0.981 2.994,0.806c9.209,-1.5 18.131,-0.25 25.65,1.169l0.694,0.066c1.05,0 2.04,-0.45 2.75,-1.266c0.872,-1.012 1.134,-2.375 0.7,-3.647c-1.46,-4.253 -1.31,-8.931 0.456,-14.309c0.353,-1.072 0.266,-2.175 -0.247,-3.103c-0.387,-0.703 -1.197,-1.628 -2.903,-2.05Z" style="fill:#232d6a;fill-rule:nonzero;"/><path d="M67.67,85.309c-5.203,-0.972 -11.043,-1.843 -17.225,-1.843c-2.99,0 -6.059,0.203 -9.171,0.696l-0.316,-15.328c10.481,-1.79 19.091,-1.818 26.941,-0.118l0.328,0.134c-1.969,5.987 -2.153,11.522 -0.557,16.459Zm-33.565,-12.597c-2.888,0.216 -5.36,2.757 -5.781,5.707l-18.213,12.515c-2.394,1.532 -4.422,3.491 -6.022,5.825l-0.175,0.253c-0.219,-2.525 0.703,-5.05 2.519,-6.84l11.653,-11.5c0.956,-0.944 1.419,-2.253 1.269,-3.588c-0.153,-1.365 -0.916,-2.565 -2.094,-3.293l-0.234,-0.254c-0.041,-0.487 0.559,-1.803 2.387,-3.418c0.728,-0.647 1.316,-0.907 1.828,-0.907c0.55,0 1.01,0.3 1.457,0.747c2.678,2.819 6.65,3.875 10.378,2.775l1.34,-0.4c0.828,-0.247 1.397,-1.009 1.397,-1.872l0,-2.781c0,-0.647 1.175,-0.647 1.175,0l0,0.038l0.138,7.415c-0.903,-0.331 -1.907,-0.493 -3.022,-0.422Zm34.681,-7.803c-8.272,-1.79 -17.228,-1.778 -27.972,0.007c-0.365,-2.113 -2.197,-3.729 -4.412,-3.729c-2.478,0 -4.494,2.016 -4.494,4.494l0,1.325c-2.288,0.666 -4.731,-0.006 -6.413,-1.772c-2.562,-2.565 -5.806,-2.581 -8.671,-0.04c-2.554,2.259 -3.863,4.631 -3.691,6.678c0.116,1.334 0.85,2.487 2.072,3.24l0.269,0.41l-0.132,0.369l-11.653,11.5c-2.837,2.8 -4.172,6.821 -3.531,10.962l1.006,3.853c0.194,0.741 0.8,1.3 1.553,1.431l0.338,0.032c0.634,0 1.24,-0.313 1.609,-0.847l2.644,-3.85c1.306,-1.903 2.956,-3.497 4.959,-4.781l19.057,-13.094c0.556,-0.381 0.875,-1.022 0.846,-1.697c-0.059,-1.319 1.044,-2.703 2.222,-2.791c1.291,-0.128 2.319,0.572 2.844,1.316l0.138,6.587c0.021,1.063 0.506,2.057 1.318,2.735c0.832,0.687 1.919,0.984 2.994,0.806c9.197,-1.497 18.125,-0.253 25.647,1.166l0.697,0.065c1.05,0 2.04,-0.447 2.747,-1.262c0.862,-0.997 1.131,-2.391 0.703,-3.647c-1.46,-4.253 -1.31,-8.934 0.456,-14.309c0.353,-1.072 0.266,-2.175 -0.247,-3.104c-0.387,-0.703 -1.197,-1.628 -2.903,-2.053Z" style="fill:#232d6a;fill-rule:nonzero;"/><path d="M68.227,99.441c-1.969,5.993 -2.153,11.528 -0.557,16.462c-5.2,-0.972 -11.04,-1.847 -17.225,-1.847c-2.987,0 -6.056,0.206 -9.171,0.7l-0.316,-15.331c10.481,-1.788 19.094,-1.816 26.944,-0.116l0.328,0.132l-0.003,0Zm-34.122,3.865c-2.888,0.213 -5.36,2.753 -5.781,5.706l-18.213,12.516c-2.391,1.525 -4.419,3.484 -6.022,5.825l-0.175,0.253c-0.219,-2.525 0.703,-5.05 2.519,-6.844l11.653,-11.496c0.956,-0.944 1.419,-2.254 1.269,-3.588c-0.153,-1.366 -0.919,-2.569 -2.094,-3.294l-0.234,-0.253c-0.041,-0.487 0.559,-1.803 2.387,-3.419c0.728,-0.646 1.319,-0.909 1.828,-0.909c0.55,0 1.01,0.303 1.457,0.75c2.675,2.813 6.65,3.878 10.375,2.772l1.34,-0.397c0.828,-0.244 1.4,-1.006 1.4,-1.872l0,-2.784c0,-0.647 1.175,-0.647 1.175,0l0,0.037l0.138,7.419c-0.903,-0.334 -1.907,-0.491 -3.022,-0.422Zm34.681,-7.803c-8.272,-1.791 -17.225,-1.778 -27.972,0.006c-0.365,-2.115 -2.197,-3.731 -4.412,-3.731c-2.478,0 -4.494,2.016 -4.494,4.494l0,1.325c-2.288,0.662 -4.731,-0.003 -6.413,-1.772c-2.562,-2.566 -5.806,-2.575 -8.671,-0.038c-2.554,2.26 -3.863,4.632 -3.691,6.675c0.116,1.338 0.85,2.488 2.072,3.244l0.269,0.41l-0.132,0.365l-11.653,11.503c-2.837,2.8 -4.172,6.825 -3.531,10.963l1.006,3.853c0.194,0.741 0.8,1.3 1.553,1.431l0.338,0.031c0.634,0 1.24,-0.312 1.609,-0.846l2.644,-3.85c1.306,-1.907 2.959,-3.5 4.959,-4.782l19.057,-13.097c0.556,-0.381 0.875,-1.021 0.846,-1.693c-0.059,-1.322 1.044,-2.703 2.222,-2.791c1.291,-0.109 2.319,0.575 2.844,1.316l0.138,6.584c0.021,1.063 0.506,2.059 1.318,2.734c0.828,0.691 1.922,0.982 2.994,0.81c9.209,-1.5 18.131,-0.253 25.65,1.165l0.694,0.066c1.05,0 2.04,-0.447 2.75,-1.266c0.872,-1.009 1.134,-2.371 0.7,-3.643c-1.46,-4.253 -1.31,-8.935 0.456,-14.31c0.353,-1.075 0.266,-2.178 -0.247,-3.103c-0.387,-0.706 -1.197,-1.628 -2.903,-2.053Z" style="fill:#232d6a;fill-rule:nonzero;"/><path d="M69.052,125.362l-0.366,-0.034c-10,-1.903 -14.381,-2.494 -24.341,-1.641c-1.1,0.129 -2.021,-0.706 -2.112,-1.778c-0.094,-1.078 0.703,-2.022 1.778,-2.112c10.406,-0.888 15.228,-0.241 25.406,1.697c1.06,0.2 1.757,1.222 1.553,2.281c-0.178,0.937 -0.996,1.587 -1.918,1.587Z" style="fill:#2a9d8e;fill-rule:nonzero;"/></svg>