<?xml version="1.0" encoding="UTF-8" standalone="no"?><!DOCTYPE svg PUBLIC "-//W3C//DTD SVG 1.1//EN" "http://www.w3.org/Graphics/SVG/1.1/DTD/svg11.dtd"><svg width="100%" height="100%" viewBox="0 0 102 135" version="1.1" xmlns="http://www.w3.org/2000/svg" xmlns:xlink="http://www.w3.org/1999/xlink" xml:space="preserve" xmlns:serif="http://www.serif.com/" style="fill-rule:evenodd;clip-rule:evenodd;stroke-linejoin:round;stroke-miterlimit:1.41421;"><path d="M42.006,9.512c-11.94,2.841 -24.047,2.838 -35.987,0c-1.222,-0.293 -2.113,-1.459 -2.113,-2.775c0,-0.859 0.385,-1.659 1.05,-2.193c0.516,-0.416 1.15,-0.635 1.803,-0.635l0.635,0.069c11.028,2.434 22.209,2.434 33.237,0c0.866,-0.187 1.756,0.016 2.438,0.566c0.669,0.534 1.05,1.334 1.05,2.193c0,1.316 -0.888,2.482 -2.113,2.775Zm-7.306,38.244l-21.375,0l0,-32.947c3.559,0.475 7.122,0.741 10.691,0.741c3.562,0 7.128,-0.266 10.684,-0.741l0,32.947Zm-10.688,36.45c-5.893,0 -10.687,-4.794 -10.687,-10.687l0,-21.857l21.375,0l0,21.857c0,5.893 -4.794,10.687 -10.688,10.687Zm15.779,-84.04c-10.469,2.309 -21.088,2.309 -31.557,0c-2.025,-0.454 -4.112,0.034 -5.725,1.331c-1.593,1.281 -2.509,3.194 -2.509,5.24c0,3.104 2.153,5.869 5.116,6.575c1.431,0.338 2.868,0.632 4.303,0.894l0,59.313c0,7.378 5.522,13.431 12.64,14.397l0,38.562c0,1.081 0.875,1.953 1.953,1.953c1.079,0 1.954,-0.872 1.954,-1.953l0,-38.562c7.115,-0.966 12.64,-7.019 12.64,-14.397l0,-59.313c1.435,-0.262 2.872,-0.556 4.303,-0.894c2.966,-0.706 5.116,-3.471 5.116,-6.575c0,-2.046 -0.913,-3.959 -2.509,-5.24c-1.61,-1.294 -3.694,-1.781 -5.725,-1.331Z" style="fill:#232d6a;fill-rule:nonzero;"/><path d="M95.131,9.512c-11.94,2.841 -24.044,2.838 -35.987,0c-1.222,-0.293 -2.113,-1.459 -2.113,-2.775c0,-0.859 0.385,-1.659 1.05,-2.193c0.516,-0.416 1.15,-0.635 1.803,-0.635l0.635,0.069c11.028,2.434 22.209,2.434 33.237,0c0.863,-0.187 1.756,0.016 2.438,0.566c0.669,0.534 1.05,1.334 1.05,2.193c0,1.316 -0.888,2.482 -2.113,2.775Zm-7.306,38.244l-21.375,0l0,-32.947c3.559,0.475 7.122,0.741 10.691,0.741c3.562,0 7.128,-0.266 10.684,-0.741l0,32.947Zm-10.688,36.45c-5.893,0 -10.687,-4.794 -10.687,-10.687l0,-21.857l21.375,0l0,21.857c0,5.893 -4.794,10.687 -10.688,10.687Zm21.504,-82.709c-1.613,-1.294 -3.694,-1.781 -5.725,-1.331c-10.469,2.309 -21.088,2.309 -31.557,0c-2.028,-0.454 -4.112,0.034 -5.725,1.331c-1.593,1.281 -2.509,3.194 -2.509,5.24c0,3.104 2.153,5.869 5.116,6.575c1.431,0.338 2.868,0.632 4.303,0.894l0,59.313c0,7.378 5.522,13.431 12.64,14.397l0,38.562c0,1.081 0.875,1.953 1.953,1.953c1.079,0 1.954,-0.872 1.954,-1.953l0,-38.562c7.115,-0.966 12.64,-7.019 12.64,-14.397l0,-59.313c1.435,-0.262 2.872,-0.556 4.303,-0.894c2.966,-0.706 5.116,-3.471 5.116,-6.575c0,-2.046 -0.913,-3.959 -2.509,-5.24Z" style="fill:#232d6a;fill-rule:nonzero;"/><path d="M20.444,130.891l7.14,0l-0.593,-2.46l-5.957,0l-0.59,2.46Zm9.625,3.906l-12.11,0c-0.597,0 -1.162,-0.275 -1.534,-0.747c-0.372,-0.472 -0.503,-1.084 -0.363,-1.666l1.538,-6.365c0.212,-0.875 0.997,-1.494 1.9,-1.494l9.028,0c0.9,0 1.684,0.619 1.897,1.494l1.541,6.365c0.14,0.582 0.006,1.194 -0.363,1.666c-0.372,0.472 -0.937,0.747 -1.534,0.747Z" style="fill:#2a9d8e;fill-rule:nonzero;"/><path d="M73.569,130.891l7.14,0l-0.593,-2.46l-5.957,0l-0.59,2.46Zm9.625,3.906l-12.11,0c-0.597,0 -1.162,-0.275 -1.534,-0.747c-0.372,-0.472 -0.503,-1.084 -0.363,-1.666l1.538,-6.365c0.212,-0.875 0.997,-1.494 1.9,-1.494l9.028,0c0.9,0 1.684,0.619 1.897,1.494l1.541,6.365c0.14,0.582 0.006,1.194 -0.363,1.666c-0.372,0.472 -0.937,0.747 -1.534,0.747Z" style="fill:#2a9d8e;fill-rule:nonzero;"/></svg>