<?xml version="1.0" encoding="UTF-8" standalone="no"?><!DOCTYPE svg PUBLIC "-//W3C//DTD SVG 1.1//EN" "http://www.w3.org/Graphics/SVG/1.1/DTD/svg11.dtd"><svg width="100%" height="100%" viewBox="0 0 135 110" version="1.1" xmlns="http://www.w3.org/2000/svg" xmlns:xlink="http://www.w3.org/1999/xlink" xml:space="preserve" xmlns:serif="http://www.serif.com/" style="fill-rule:evenodd;clip-rule:evenodd;stroke-linejoin:round;stroke-miterlimit:1.41421;"><path d="M94.984,69.962c-3.8,0 -7.531,-1.438 -10.375,-4.044c-3.162,-2.903 -4.978,-7.028 -4.978,-11.322c0,-3.625 -2.95,-6.575 -6.572,-6.575l-8.653,0c-6.162,8.566 -17.5,13.844 -29.884,13.844c-19.035,0 -34.522,-12.428 -34.522,-27.703c0,-15.278 15.487,-27.706 34.522,-27.706c14.097,0 26.762,6.915 31.994,17.337l6.543,0c3.622,0 6.572,-2.95 6.572,-6.572l0,-1.853c0,-4.294 1.816,-8.422 4.978,-11.325c3.166,-2.9 7.432,-4.362 11.71,-3.984c9.181,0.456 17.903,2.653 26.334,4.775c3.747,0.943 7.285,1.834 10.756,2.543c1.057,0.216 1.738,1.247 1.522,2.304c-0.215,1.056 -1.253,1.74 -2.303,1.521c-3.559,-0.725 -7.14,-1.628 -10.928,-2.581c-8.25,-2.075 -16.778,-4.222 -25.647,-4.665c-3.312,-0.291 -6.409,0.771 -8.803,2.965c-2.394,2.197 -3.713,5.197 -3.713,8.447l0,1.853c0,5.778 -4.7,10.478 -10.478,10.478l-7.784,0c-0.775,0 -1.478,-0.459 -1.788,-1.168c-4.234,-9.672 -15.871,-16.169 -28.965,-16.169c-16.881,0 -30.616,10.675 -30.616,23.8c0,13.122 13.735,23.797 30.616,23.797c11.506,0 21.94,-4.969 27.231,-12.969c0.363,-0.547 0.975,-0.875 1.628,-0.875l9.678,0c5.778,0 10.478,4.7 10.478,10.481c0,3.247 1.319,6.247 3.713,8.441c2.394,2.197 5.5,3.237 8.734,2.975c7.232,-0.469 14.6,-1.944 21.725,-3.369c4.91,-0.981 9.985,-1.994 15.041,-2.697c1.059,-0.144 2.053,0.597 2.203,1.666c0.147,1.069 -0.6,2.056 -1.666,2.203c-4.943,0.687 -9.959,1.691 -14.812,2.659c-7.25,1.45 -14.75,2.95 -22.197,3.432c-0.431,0.037 -0.862,0.056 -1.294,0.056Z" style="fill:#232d6a;fill-rule:nonzero;"/><path d="M119.531,76.774l0.031,0l-0.031,0Zm-106.569,-7.218c-1.637,0 -3.246,0.475 -4.715,1.4c-2.716,1.721 -4.341,4.656 -4.341,7.85l0,17.712c0,5.106 4.157,9.263 9.263,9.263l108.556,0c5.106,0 9.263,-4.157 9.263,-9.263l0,-8.747c0,-2.784 -1.235,-5.394 -3.391,-7.159c-2.153,-1.769 -4.963,-2.469 -7.685,-1.922l-1.44,0.287c-7.25,1.447 -14.747,2.947 -22.194,3.429c-4.703,0.403 -9.587,-1.969 -12.987,-6.357c-4.416,-5.69 -10.7,-8.956 -17.238,-8.956c-3.634,0 -9.159,1.131 -12.312,2.522c-5.603,2.466 -11.81,4.75 -19.219,4.75c-6.241,0 -12.356,-1.353 -17.688,-3.913c-1.268,-0.603 -2.578,-0.896 -3.872,-0.896Zm108.763,40.131l-108.556,0c-7.263,0 -13.169,-5.906 -13.169,-13.169l0,-17.712c0,-4.541 2.303,-8.707 6.159,-11.15c3.722,-2.357 8.291,-2.65 12.222,-0.794c4.95,2.378 10.481,3.597 16.141,3.597c6.687,0 12.431,-2.125 17.644,-4.419c3.628,-1.6 9.731,-2.853 13.887,-2.853c7.753,0 15.163,3.815 20.322,10.469c2.588,3.337 6.172,5.118 9.609,4.856c7.228,-0.469 14.597,-1.941 21.722,-3.366l1.444,-0.287c3.878,-0.778 7.862,0.222 10.925,2.731c3.063,2.512 4.819,6.222 4.819,10.181l0,8.747c0,7.263 -5.906,13.169 -13.169,13.169Z" style="fill:#2a9d8e;fill-rule:nonzero;"/><path d="M76.684,38.271l-3.125,0c-1.078,0 -1.953,-0.872 -1.953,-1.953c0,-1.078 0.875,-1.953 1.953,-1.953l3.125,0c1.079,0 1.954,0.875 1.954,1.953c0,1.081 -0.875,1.953 -1.954,1.953Zm12.5,0l-3.125,0c-1.078,0 -1.953,-0.872 -1.953,-1.953c0,-1.078 0.875,-1.953 1.953,-1.953l3.125,0c1.079,0 1.954,0.875 1.954,1.953c0,1.081 -0.875,1.953 -1.954,1.953Zm12.5,0l-3.125,0c-1.078,0 -1.953,-0.872 -1.953,-1.953c0,-1.078 0.875,-1.953 1.953,-1.953l3.125,0c1.079,0 1.954,0.875 1.954,1.953c0,1.081 -0.875,1.953 -1.954,1.953Zm12.5,0l-3.125,0c-1.078,0 -1.953,-0.872 -1.953,-1.953c0,-1.078 0.875,-1.953 1.953,-1.953l3.125,0c1.079,0 1.954,0.875 1.954,1.953c0,1.081 -0.875,1.953 -1.954,1.953Zm12.5,0l-3.125,0c-1.078,0 -1.953,-0.872 -1.953,-1.953c0,-1.078 0.875,-1.953 1.953,-1.953l3.125,0c1.079,0 1.954,0.875 1.954,1.953c0,1.081 -0.875,1.953 -1.954,1.953Z" style="fill:#2a9d8e;fill-rule:nonzero;"/></svg>