<?xml version="1.0" encoding="UTF-8" standalone="no"?><!DOCTYPE svg PUBLIC "-//W3C//DTD SVG 1.1//EN" "http://www.w3.org/Graphics/SVG/1.1/DTD/svg11.dtd"><svg width="100%" height="100%" viewBox="0 0 128 135" version="1.1" xmlns="http://www.w3.org/2000/svg" xmlns:xlink="http://www.w3.org/1999/xlink" xml:space="preserve" xmlns:serif="http://www.serif.com/" style="fill-rule:evenodd;clip-rule:evenodd;stroke-linejoin:round;stroke-miterlimit:1.41421;"><path d="M37.027,84.088c-0.497,-2.275 -0.925,-4.235 -1.19,-6.572c-0.266,-2.338 -0.325,-4.753 -0.179,-7.178c0.063,-1.016 -0.662,-1.907 -1.665,-2.054c-1.019,-0.153 -1.953,0.504 -2.185,1.488c-0.525,2.234 -0.887,4.475 -1.078,6.662l-0.106,1.379c-0.087,1.243 -0.141,1.993 -0.462,2.978c-0.416,1.265 -1.129,2.447 -2.116,3.512c-0.338,0.366 -0.522,0.844 -0.519,1.341c0.006,0.884 0.01,2.212 0,3.828c-0.028,4.1 -0.14,7.625 -0.184,8.562c-0.225,4.475 -2.013,8.435 -4.719,14.425c-3.519,7.788 -5.284,11.697 -7.616,14.994c-0.384,0.544 -1.55,2.194 -2.284,4.569c-0.316,1.031 0.259,2.125 1.291,2.444l0.575,0.087c0.837,0 1.609,-0.54 1.868,-1.378c0.547,-1.781 1.413,-3.006 1.738,-3.466c2.55,-3.603 4.369,-7.628 7.987,-15.643c2.788,-6.166 4.797,-10.622 5.06,-15.838c0.047,-0.953 0.162,-4.55 0.19,-8.731c0.007,-1.234 0.007,-2.3 0.004,-3.138c0.615,-0.74 1.143,-1.521 1.578,-2.34c0.065,0.3 0.131,0.597 0.193,0.9c0.825,3.775 2.694,15.54 1.479,24.509l0.003,0.006l-0.003,0.007c-0.157,1.175 -0.488,1.928 -1.429,3.931c-1.606,3.409 -2.906,6.059 -3.387,7.044l-0.175,0.353c-1.369,2.815 -1.959,5.653 -2.422,11.681c-0.081,1.075 0.722,2.013 1.797,2.097l0.153,0.006c1.009,0 1.866,-0.781 1.944,-1.806c0.472,-6.1 1.056,-8.244 2.044,-10.269l0.168,-0.344c0.485,-0.993 1.794,-3.662 3.41,-7.1c0.953,-2.021 1.525,-3.243 1.765,-5.078l0,-0.003l0.003,-0.006l0,-0.003l0,-0.003c1.291,-9.528 -0.665,-21.891 -1.531,-25.853Z" style="fill:#232d6a;fill-rule:nonzero;"/><path d="M51.043,0l-0.028,0c-1.066,0 -1.938,0.859 -1.953,1.928l-0.085,6.869c0.041,0.531 -0.009,1.062 -0.134,1.569c-0.031,0.115 -0.319,1.165 -1.341,2.378c-0.834,0.99 -2.337,1.903 -4.472,2.715c-1.625,0.613 -2.728,0.835 -4.4,1.169l-1.097,0.222c-4.44,0.919 -6.668,1.378 -8.721,2.234c-5.641,2.347 -8.754,7.044 -9.832,8.954c-1.94,3.443 -2.312,6.453 -2.875,11.015c-0.5,4.047 -0.39,7.775 -0.337,9.566c0.056,1.865 0.159,2.978 0.24,3.875c0.1,1.065 0.16,1.709 0.085,3.034c-0.103,1.828 -0.335,2.647 -0.653,3.781c-0.278,0.994 -0.625,2.229 -0.938,4.344c-0.619,4.156 -0.497,7.441 -0.344,11.622c0.075,2.047 0.222,4.109 0.432,6.141c-0.288,0.322 -0.61,0.69 -0.95,1.106c-2.803,3.4 -4.85,7.131 -6.085,11.084c-0.931,2.975 -1.2,5.45 -1.69,9.963c-0.291,2.703 -0.357,4.369 -0.416,5.797c-0.069,1.709 -0.119,2.947 -0.528,5.268c-0.056,0.322 -0.072,0.366 -0.306,1.288c-0.247,0.962 -0.719,2.794 -1.663,6.556l-0.2,0.806c-1.39,5.566 -1.6,6.329 -2.437,7.616c-0.588,0.906 -0.328,2.116 0.575,2.703c0.328,0.213 0.697,0.313 1.062,0.313c0.641,0 1.266,-0.313 1.641,-0.888c1.225,-1.884 1.556,-3.212 2.95,-8.797l0.2,-0.803c0.94,-3.75 1.406,-5.575 1.656,-6.537c0.288,-1.132 0.3,-1.185 0.369,-1.578c0.453,-2.579 0.515,-4.069 0.584,-5.788c0.056,-1.363 0.119,-2.956 0.4,-5.562c0.475,-4.382 0.716,-6.582 1.531,-9.191c1.085,-3.472 2.891,-6.756 5.372,-9.769c0.544,-0.659 1.028,-1.19 1.385,-1.562c0.4,-0.422 0.593,-0.994 0.528,-1.569c-0.253,-2.222 -0.422,-4.488 -0.506,-6.763c-0.147,-3.959 -0.26,-7.084 0.303,-10.881c0.278,-1.875 0.562,-2.884 0.837,-3.862c0.341,-1.216 0.663,-2.363 0.791,-4.616c0.09,-1.619 0.009,-2.5 -0.094,-3.616c-0.078,-0.843 -0.175,-1.884 -0.228,-3.631c-0.053,-1.825 -0.153,-5.222 0.312,-8.978c0.541,-4.384 0.838,-6.8 2.4,-9.569c0.685,-1.215 3.282,-5.331 7.929,-7.265c1.709,-0.71 3.815,-1.147 8.012,-2.013l1.075,-0.219c1.725,-0.346 3.091,-0.618 5.013,-1.347c2.806,-1.065 4.793,-2.324 6.078,-3.853c1.468,-1.74 1.984,-3.328 2.137,-3.934c0.231,-0.916 0.313,-1.856 0.253,-2.638l0.088,-6.706c0.015,-1.081 -0.85,-1.965 -1.925,-1.981Z" style="fill:#232d6a;fill-rule:nonzero;"/><path d="M126.793,130.903c-0.835,-1.29 -1.047,-2.05 -2.438,-7.612l-0.2,-0.813c-0.943,-3.762 -1.415,-5.594 -1.662,-6.556c-0.235,-0.922 -0.25,-0.966 -0.306,-1.288c-0.41,-2.321 -0.46,-3.559 -0.529,-5.268c-0.059,-1.428 -0.125,-3.094 -0.421,-5.822c-0.485,-4.488 -0.754,-6.963 -1.685,-9.938c-1.234,-3.95 -3.278,-7.678 -6.084,-11.087c-0.341,-0.413 -0.663,-0.781 -0.95,-1.1c0.212,-2.044 0.356,-4.103 0.431,-6.144c0.153,-4.162 0.275,-7.453 -0.344,-11.622c-0.312,-2.115 -0.659,-3.35 -0.937,-4.34c-0.319,-1.135 -0.55,-1.957 -0.653,-3.785c-0.075,-1.328 -0.016,-1.972 0.084,-3.037c0.084,-0.9 0.184,-2.01 0.241,-3.872c0.053,-1.791 0.162,-5.519 -0.335,-9.566c-0.562,-4.559 -0.934,-7.569 -2.878,-11.015c-1.078,-1.91 -4.19,-6.607 -9.831,-8.954c-2.056,-0.856 -4.281,-1.315 -8.719,-2.231l-1.1,-0.225c-1.672,-0.334 -2.775,-0.556 -4.397,-1.169c-2.137,-0.812 -3.64,-1.725 -4.475,-2.715c-1.022,-1.216 -1.309,-2.263 -1.34,-2.372c-0.125,-0.506 -0.172,-1.041 -0.132,-1.738l-0.087,-6.706c-0.016,-1.069 -0.888,-1.928 -1.953,-1.928l-0.028,0c-1.078,0.016 -1.941,0.903 -1.925,1.981l0.09,6.547c-0.062,0.95 0.019,1.891 0.25,2.803c0.153,0.6 0.666,2.185 2.135,3.928c1.287,1.529 3.275,2.788 6.081,3.853c1.922,0.729 3.287,1.001 5.012,1.347l1.075,0.219c4.194,0.866 6.304,1.303 8.013,2.013c4.647,1.934 7.244,6.05 7.928,7.262c1.563,2.775 1.863,5.191 2.403,9.581c0.463,3.747 0.363,7.144 0.31,8.969c-0.054,1.744 -0.15,2.785 -0.229,3.625c-0.103,1.119 -0.184,2.003 -0.093,3.622c0.128,2.253 0.45,3.403 0.79,4.619c0.275,0.975 0.56,1.987 0.838,3.859c0.565,3.813 0.447,6.941 0.303,10.903c-0.084,2.238 -0.253,4.507 -0.506,6.741c-0.063,0.572 0.128,1.147 0.525,1.566c0.356,0.371 0.843,0.906 1.39,1.565c2.482,3.016 4.288,6.303 5.369,9.769c0.816,2.609 1.053,4.809 1.531,9.216c0.282,2.581 0.344,4.174 0.4,5.537c0.069,1.719 0.132,3.209 0.585,5.788c0.068,0.393 0.081,0.446 0.368,1.578c0.247,0.962 0.716,2.787 1.657,6.537l0.203,0.813c1.394,5.575 1.725,6.903 2.947,8.784c0.375,0.578 1,0.891 1.64,0.891c0.366,0 0.732,-0.1 1.06,-0.313c0.906,-0.587 1.165,-1.797 0.578,-2.7Z" style="fill:#232d6a;fill-rule:nonzero;"/><path d="M112.099,127.453c-2.328,-3.29 -4.084,-7.181 -7.616,-14.994c-2.706,-5.99 -4.493,-9.95 -4.718,-14.425c-0.044,-0.937 -0.157,-4.462 -0.185,-8.562c-0.009,-1.616 -0.006,-2.944 0,-3.828c0.003,-0.497 -0.181,-0.975 -0.518,-1.341c-0.988,-1.065 -1.7,-2.247 -2.116,-3.512c-0.325,-0.988 -0.378,-1.741 -0.463,-2.991l-0.106,-1.362c-0.19,-2.188 -0.553,-4.432 -1.075,-6.666c-0.231,-0.984 -1.156,-1.628 -2.184,-1.488c-1.003,0.147 -1.728,1.038 -1.669,2.05c0.15,2.429 0.088,4.844 -0.178,7.182c-0.175,1.531 -0.459,2.903 -0.744,4.284c-0.156,0.775 -0.319,1.553 -0.462,2.359c-2.335,13.116 -2.778,20.882 -1.485,25.947c0.241,1.672 0.766,2.866 1.735,4.928c1.693,3.597 3.05,6.357 3.584,7.447c0.984,2.022 1.569,4.166 2.041,10.266c0.078,1.025 0.934,1.806 1.943,1.806l0.154,-0.006c1.075,-0.084 1.878,-1.022 1.796,-2.097c-0.462,-6.025 -1.053,-8.862 -2.534,-11.909c-0.425,-0.863 -1.769,-3.6 -3.45,-7.169c-0.953,-2.034 -1.275,-2.788 -1.428,-3.934l-0.038,-0.113l-0.006,-0.125c-1.153,-4.422 -0.678,-11.934 1.535,-24.356c0.05,-0.291 0.106,-0.578 0.162,-0.863c0.438,0.832 0.972,1.625 1.597,2.378c-0.003,0.838 -0.003,1.904 0.003,3.138c0.028,4.181 0.144,7.778 0.191,8.731c0.262,5.216 2.272,9.672 5.084,15.897c3.606,7.981 5.419,11.991 7.963,15.584c0.325,0.46 1.187,1.685 1.74,3.466c0.26,0.838 1.031,1.378 1.866,1.378l0.575,-0.087c1.031,-0.319 1.609,-1.413 1.29,-2.444c-0.734,-2.375 -1.9,-4.025 -2.284,-4.569Z" style="fill:#232d6a;fill-rule:nonzero;"/><path d="M62.458,10.381c-0.825,0 -1.59,-0.525 -1.859,-1.35l-0.481,-1.447c-0.347,-1.018 0.194,-2.131 1.215,-2.481c1.019,-0.347 2.135,0.194 2.482,1.216l0.503,1.506c0.331,1.025 -0.231,2.128 -1.256,2.463l-0.604,0.093Z" style="fill:#2a9d8e;fill-rule:nonzero;"/><path d="M65.687,22.578c-0.907,0 -1.719,-0.634 -1.91,-1.556c-0.219,-1.044 -0.444,-2.053 -0.675,-3.025c-0.25,-1.05 0.4,-2.103 1.447,-2.353c1.053,-0.25 2.103,0.4 2.353,1.45c0.238,1.006 0.475,2.05 0.697,3.131c0.222,1.056 -0.456,2.091 -1.512,2.313l-0.4,0.04Zm1.965,12.472c-0.984,0 -1.831,-0.747 -1.937,-1.747c-0.113,-1.05 -0.235,-2.078 -0.369,-3.084c-0.144,-1.069 0.609,-2.053 1.678,-2.194c1.063,-0.128 2.05,0.606 2.194,1.678c0.137,1.041 0.265,2.103 0.381,3.188c0.113,1.072 -0.662,2.034 -1.737,2.147l-0.21,0.012Zm0.622,12.6l-0.062,0c-1.079,-0.034 -1.925,-0.934 -1.891,-2.016c0.022,-0.696 0.034,-1.406 0.034,-2.128l-0.006,-0.934c-0.016,-1.078 0.847,-1.966 1.925,-1.981c1.131,0.053 1.966,0.85 1.981,1.925l0.007,0.99c0,0.763 -0.013,1.513 -0.038,2.253c-0.034,1.057 -0.9,1.891 -1.95,1.891Zm-1.619,12.497l-0.425,-0.044c-1.053,-0.234 -1.715,-1.275 -1.484,-2.328c0.219,-0.991 0.422,-1.997 0.603,-3.019c0.191,-1.059 1.188,-1.778 2.266,-1.578c1.062,0.188 1.768,1.203 1.581,2.266c-0.194,1.078 -0.406,2.134 -0.634,3.172c-0.204,0.912 -1.01,1.531 -1.907,1.531Zm-3.409,12.153l-0.581,-0.091c-1.032,-0.322 -1.603,-1.418 -1.282,-2.446l0.932,-3.004c0.315,-1.028 1.406,-1.606 2.44,-1.293c1.032,0.315 1.61,1.406 1.294,2.437l-0.937,3.025c-0.263,0.838 -1.035,1.372 -1.866,1.372Zm-3.453,12.134l-0.441,-0.05c-1.053,-0.243 -1.706,-1.29 -1.465,-2.343c0.246,-1.06 0.506,-2.097 0.778,-3.125c0.278,-1.041 1.34,-1.654 2.39,-1.385c1.044,0.275 1.663,1.347 1.388,2.391c-0.263,0.981 -0.516,1.981 -0.75,2.997c-0.206,0.906 -1.01,1.515 -1.9,1.515Zm-1.844,12.469l-0.116,-0.003c-1.078,-0.066 -1.9,-0.991 -1.834,-2.066c0.066,-1.106 0.156,-2.178 0.266,-3.231c0.112,-1.075 1.09,-1.856 2.143,-1.74c1.075,0.112 1.854,1.071 1.741,2.146c-0.103,0.994 -0.187,2.013 -0.25,3.057c-0.062,1.037 -0.922,1.837 -1.95,1.837Zm0.278,12.61c-0.99,0 -1.84,-0.75 -1.94,-1.76c-0.104,-1.053 -0.191,-2.128 -0.257,-3.222c-0.065,-1.075 0.753,-2.003 1.832,-2.068c1.065,-0.041 2,0.756 2.068,1.831c0.063,1.04 0.144,2.065 0.244,3.075c0.109,1.072 -0.675,2.028 -1.75,2.134l-0.197,0.01Zm2.141,12.434c-0.875,0 -1.675,-0.594 -1.894,-1.481c-0.25,-1.019 -0.491,-2.069 -0.719,-3.15c-0.218,-1.057 0.457,-2.091 1.513,-2.31c1.053,-0.218 2.09,0.456 2.312,1.51c0.216,1.037 0.447,2.04 0.688,3.012c0.256,1.044 -0.381,2.103 -1.428,2.363l-0.472,0.056Z" style="fill:#2a9d8e;fill-rule:nonzero;"/><path d="M63.674,132.569c-0.787,0 -1.534,-0.481 -1.828,-1.266l-0.547,-1.487c-0.366,-1.016 0.163,-2.135 1.178,-2.497c1.019,-0.366 2.135,0.162 2.5,1.178l0.525,1.431c0.381,1.01 -0.131,2.138 -1.14,2.516l-0.688,0.125Z" style="fill:#2a9d8e;fill-rule:nonzero;"/></svg>