<?xml version="1.0" encoding="UTF-8" standalone="no"?><!DOCTYPE svg PUBLIC "-//W3C//DTD SVG 1.1//EN" "http://www.w3.org/Graphics/SVG/1.1/DTD/svg11.dtd"><svg width="100%" height="100%" viewBox="0 0 135 135" version="1.1" xmlns="http://www.w3.org/2000/svg" xmlns:xlink="http://www.w3.org/1999/xlink" xml:space="preserve" xmlns:serif="http://www.serif.com/" style="fill-rule:evenodd;clip-rule:evenodd;stroke-linejoin:round;stroke-miterlimit:1.41421;"><path d="M58.331,12.972c0,-4.997 4.066,-9.066 9.063,-9.066c5,0 9.065,4.069 9.065,9.066l0,5.034c0,5 -4.065,9.066 -9.065,9.066c-4.997,0 -9.063,-4.066 -9.063,-9.066l0,-5.034Zm9.063,18.006c7.153,0 12.972,-5.819 12.972,-12.972l0,-5.034c0,-7.15 -5.819,-12.972 -12.972,-12.972c-7.15,0 -12.969,5.822 -12.969,12.972l0,5.034c0,7.153 5.819,12.972 12.969,12.972Z" style="fill:#232d6a;fill-rule:nonzero;"/><path d="M42.109,70.675c1.078,0 1.954,-0.875 1.954,-1.953l0,-17.388c0,-4.325 2.775,-8.125 6.75,-9.24c11.006,-3.088 22.162,-3.085 33.165,0c3.975,1.115 6.753,4.915 6.753,9.24l0,14.325c0,1.082 0.875,1.954 1.953,1.954c1.079,0 1.954,-0.872 1.954,-1.954l0,-14.325c0,-6.065 -3.95,-11.412 -9.607,-13c-11.703,-3.287 -23.568,-3.287 -35.275,0c-5.653,1.588 -9.6,6.935 -9.6,13l0,17.388c0,1.078 0.872,1.953 1.953,1.953Z" style="fill:#232d6a;fill-rule:nonzero;"/><path d="M81.219,53.688l0,9.343c0,1.078 0.875,1.953 1.953,1.953c1.078,0 1.953,-0.875 1.953,-1.953l0,-9.343c0,-1.079 -0.875,-1.954 -1.953,-1.954c-1.078,0 -1.953,0.875 -1.953,1.954Z" style="fill:#232d6a;fill-rule:nonzero;"/><path d="M49.666,53.688l0,13.637c0,1.078 0.872,1.953 1.953,1.953c1.078,0 1.953,-0.875 1.953,-1.953l0,-13.637c0,-1.079 -0.875,-1.954 -1.953,-1.954c-1.081,0 -1.953,0.875 -1.953,1.954Z" style="fill:#232d6a;fill-rule:nonzero;"/><path d="M124.231,100.291l-113.675,0c-3.665,0 -6.65,-2.985 -6.65,-6.653c0,-3.669 2.985,-6.654 6.65,-6.654l113.675,0c3.669,0 6.653,2.985 6.653,6.654c0,3.668 -2.984,6.653 -6.653,6.653Zm-43.012,26.603c0,2.203 -1.791,3.994 -3.994,3.994c-2.2,0 -3.991,-1.791 -3.991,-3.994l0,-22.697l7.985,0l0,22.697Zm-19.663,0c0,2.203 -1.79,3.994 -3.993,3.994c-2.201,0 -3.991,-1.791 -3.991,-3.994l0,-22.697l7.984,0l0,22.697Zm62.675,-43.816l-113.675,0c-5.822,0 -10.556,4.738 -10.556,10.56c0,5.821 4.734,10.559 10.556,10.559l7.31,0l0,28.644c0,1.078 0.875,1.953 1.953,1.953c1.078,0 1.953,-0.875 1.953,-1.953l0,-28.644l27.894,0l0,22.697c0,4.356 3.54,7.9 7.897,7.9c4.359,0 7.9,-3.544 7.9,-7.9l0,-22.697l3.865,0l0,22.697c0,4.356 3.541,7.9 7.897,7.9c4.356,0 7.9,-3.544 7.9,-7.9l0,-22.697l27.894,0l0,28.644c0,1.078 0.875,1.953 1.953,1.953c1.078,0 1.953,-0.875 1.953,-1.953l0,-28.644l7.306,0c5.825,0 10.56,-4.738 10.56,-10.559c0,-5.822 -4.735,-10.56 -10.56,-10.56Z" style="fill:#232d6a;fill-rule:nonzero;"/><path d="M116.669,83.05l-5.213,0c-5,0 -9.065,-4.066 -9.065,-9.062l0,-0.144c0,-5 4.065,-9.066 9.065,-9.066l5.213,0c4.997,0 9.062,4.066 9.062,9.21c0,4.996 -4.065,9.062 -9.062,9.062Zm0,-22.178l-5.213,0c-7.153,0 -12.972,5.819 -12.972,12.972l0,0.144c0,7.15 5.819,12.968 12.972,12.968l5.213,0c7.153,0 12.969,-5.818 12.969,-13.112c0,-7.153 -5.816,-12.972 -12.969,-12.972Z" style="fill:#2a9d8e;fill-rule:nonzero;"/><path d="M87.206,81.884c1.756,-1.362 2.869,-3.487 2.869,-5.875c0,-2.309 -1.044,-4.45 -2.869,-5.868c-1.822,-1.419 -4.153,-1.904 -6.393,-1.344l-25.391,6.419l-0.366,-6.222c6.138,-0.869 12.166,-1.803 17.941,-2.71l6.625,-1.031c5.594,-0.715 9.6,-0.04 11.912,1.994c1.572,1.387 2.369,3.459 2.369,6.166c0,4.112 -2.866,7.546 -6.697,8.471Zm-35.356,-1.737l29.922,-7.563c0.29,-0.071 0.584,-0.109 0.872,-0.109c0.775,0 1.534,0.259 2.162,0.747c0.869,0.675 1.363,1.691 1.363,2.787c0,1.829 -1.372,3.341 -3.194,3.516l-34.425,3.309c0.631,-1.306 1.819,-2.312 3.3,-2.687Zm-43.078,-2.788c0,-2.625 2.122,-4.765 4.728,-4.775c12.328,-0.04 25.203,-1.35 37.678,-3.04l0.391,6.647l-0.675,0.168c-3.006,0.76 -5.319,2.982 -6.275,5.791l-31.056,0c-2.641,0 -4.791,-2.15 -4.791,-4.791Zm70.306,-15.975l-6.684,1.041c-18.503,2.9 -39.478,6.188 -58.906,6.253c-4.757,0.016 -8.622,3.91 -8.622,8.681c0,4.794 3.9,8.697 8.697,8.697l30.909,0l0.306,0.422c0.363,0.328 0.831,0.506 1.316,0.506l0.184,-0.009l9.578,-0.919l29.31,0c6.972,0 12.643,-5.672 12.643,-12.643c0,-3.822 -1.278,-6.969 -3.693,-9.097c-3.188,-2.807 -8.228,-3.797 -15.038,-2.932Z" style="fill:#2a9d8e;fill-rule:nonzero;"/></svg>