<?xml version="1.0" encoding="UTF-8" standalone="no"?><!DOCTYPE svg PUBLIC "-//W3C//DTD SVG 1.1//EN" "http://www.w3.org/Graphics/SVG/1.1/DTD/svg11.dtd"><svg width="100%" height="100%" viewBox="0 0 135 136" version="1.1" xmlns="http://www.w3.org/2000/svg" xmlns:xlink="http://www.w3.org/1999/xlink" xml:space="preserve" xmlns:serif="http://www.serif.com/" style="fill-rule:evenodd;clip-rule:evenodd;stroke-linejoin:round;stroke-miterlimit:1.41421;"><path d="M33.158,95.151c-1.056,0.231 -1.725,1.272 -1.494,2.325c1.016,4.662 3.706,24.863 2.256,35.556c-0.147,1.072 0.603,2.053 1.672,2.197l0.266,0.019c0.959,0 1.8,-0.71 1.931,-1.691c1.513,-11.159 -1.259,-32.094 -2.309,-36.912c-0.232,-1.053 -1.282,-1.732 -2.322,-1.494Z" style="fill:#232d6a;fill-rule:nonzero;"/><path d="M31.736,96.351c0.337,-1.025 -0.219,-2.128 -1.244,-2.466c-1.025,-0.337 -2.131,0.219 -2.469,1.244c-0.721,2.2 -1.912,4.363 -2.596,5.103c-0.338,0.363 -0.525,0.841 -0.522,1.338c0.006,1.053 0.012,2.637 0,4.562c-0.035,5.106 -0.175,9.269 -0.219,10.21c-0.269,5.396 -1.725,8.618 -4.916,15.681l-0.006,0.012c-0.444,0.982 -0.003,2.135 0.978,2.578l0.8,0.172c0.747,0 1.463,-0.431 1.791,-1.156c3.294,-7.297 4.947,-10.959 5.253,-17.091c0.062,-1.253 0.194,-5.59 0.225,-10.378c0.009,-1.556 0.009,-2.893 0.003,-3.909c1.056,-1.413 2.197,-3.697 2.922,-5.9Z" style="fill:#232d6a;fill-rule:nonzero;"/><path d="M52.517,0.001c-1.05,-0.034 -1.965,0.85 -1.975,1.928l-0.1,8.141c0.047,0.678 -0.012,1.347 -0.175,1.99c-0.037,0.144 -0.397,1.463 -1.669,2.975c-1.037,1.232 -2.881,2.354 -5.481,3.338c-1.962,0.747 -3.362,1.025 -5.297,1.415l-1.3,0.263c-5.259,1.087 -7.903,1.634 -10.315,2.634c-6.616,2.757 -10.263,8.26 -11.522,10.497c-2.272,4.031 -2.713,7.585 -3.378,12.978c-0.594,4.807 -0.46,9.213 -0.397,11.332c0.065,2.206 0.187,3.521 0.287,4.584c0.113,1.244 0.191,2.062 0.097,3.672c-0.125,2.219 -0.403,3.209 -0.787,4.581c-0.328,1.172 -0.738,2.628 -1.107,5.125c-0.731,4.913 -0.587,8.809 -0.403,13.766c0.091,2.484 0.269,4.987 0.525,7.45c-0.365,0.403 -0.784,0.881 -1.231,1.425c-0.491,0.597 -4.862,6.068 -6.756,14.065c-1.806,7.638 -1.522,20.197 -1.51,20.725c0.025,1.063 0.897,1.907 1.954,1.907l0.046,0c1.079,-0.025 1.932,-0.922 1.907,-2c-0.003,-0.125 -0.288,-12.585 1.406,-19.729c1.719,-7.265 5.797,-12.278 5.969,-12.484c0.656,-0.797 1.24,-1.437 1.668,-1.887c0.4,-0.419 0.594,-0.994 0.529,-1.566c-0.304,-2.653 -0.507,-5.363 -0.604,-8.072c-0.175,-4.734 -0.312,-8.472 0.363,-13.025c0.334,-2.256 0.691,-3.525 1.006,-4.644c0.4,-1.428 0.778,-2.775 0.928,-5.418c0.107,-1.897 0.01,-2.935 -0.112,-4.247c-0.091,-1.01 -0.206,-2.257 -0.272,-4.347c-0.059,-2.022 -0.184,-6.225 0.375,-10.75c0.65,-5.263 1.006,-8.163 2.903,-11.522c0.825,-1.472 3.969,-6.456 9.616,-8.806c2.068,-0.86 4.587,-1.382 9.609,-2.419l1.275,-0.259c2.038,-0.41 3.65,-0.732 5.913,-1.591c3.275,-1.241 5.59,-2.703 7.084,-4.475c1.753,-2.081 2.334,-3.997 2.469,-4.534c0.265,-1.047 0.359,-2.129 0.287,-3.054l0.106,-7.987c0.013,-1.078 -0.85,-1.963 -1.931,-1.975Z" style="fill:#232d6a;fill-rule:nonzero;"/><path d="M67.42,12.123c-1.078,0 -1.953,0.875 -1.953,1.953l0,1.556c0,1.081 0.875,1.953 1.953,1.953c1.078,0 1.953,-0.872 1.953,-1.953l0,-1.556c0,-1.078 -0.875,-1.953 -1.953,-1.953Z" style="fill:#232d6a;fill-rule:nonzero;"/><path d="M67.42,105.538c-1.078,0 -1.953,0.875 -1.953,1.954l0,2.965c0,1.078 0.875,1.953 1.953,1.953c1.078,0 1.953,-0.875 1.953,-1.953l0,-2.965c0,-1.079 -0.875,-1.954 -1.953,-1.954Z" style="fill:#232d6a;fill-rule:nonzero;"/><path d="M67.42,93.685c-1.078,0 -1.953,0.872 -1.953,1.953l0,2.963c0,1.078 0.875,1.953 1.953,1.953c1.078,0 1.953,-0.875 1.953,-1.953l0,-2.963c0,-1.081 -0.875,-1.953 -1.953,-1.953Z" style="fill:#232d6a;fill-rule:nonzero;"/><path d="M67.42,117.401c-1.078,0 -1.953,0.875 -1.953,1.953l0,2.963c0,1.078 0.875,1.953 1.953,1.953c1.078,0 1.953,-0.875 1.953,-1.953l0,-2.963c0,-1.078 -0.875,-1.953 -1.953,-1.953Z" style="fill:#232d6a;fill-rule:nonzero;"/><path d="M67.42,81.835c-1.078,0 -1.953,0.872 -1.953,1.954l0,2.962c0,1.078 0.875,1.953 1.953,1.953c1.078,0 1.953,-0.875 1.953,-1.953l0,-2.962c0,-1.082 -0.875,-1.954 -1.953,-1.954Z" style="fill:#232d6a;fill-rule:nonzero;"/><path d="M67.42,34.423c-1.078,0 -1.953,0.875 -1.953,1.953l0,2.966c0,1.078 0.875,1.953 1.953,1.953c1.078,0 1.953,-0.875 1.953,-1.953l0,-2.966c0,-1.078 -0.875,-1.953 -1.953,-1.953Z" style="fill:#232d6a;fill-rule:nonzero;"/><path d="M67.42,69.985c-1.078,0 -1.953,0.875 -1.953,1.953l0,2.963c0,1.078 0.875,1.953 1.953,1.953c1.078,0 1.953,-0.875 1.953,-1.953l0,-2.963c0,-1.078 -0.875,-1.953 -1.953,-1.953Z" style="fill:#232d6a;fill-rule:nonzero;"/><path d="M67.42,46.282c-1.078,0 -1.953,0.875 -1.953,1.953l0,2.963c0,1.081 0.875,1.953 1.953,1.953c1.078,0 1.953,-0.872 1.953,-1.953l0,-2.963c0,-1.078 -0.875,-1.953 -1.953,-1.953Z" style="fill:#232d6a;fill-rule:nonzero;"/><path d="M67.42,22.563c-1.078,0 -1.953,0.875 -1.953,1.954l0,2.965c0,1.078 0.875,1.953 1.953,1.953c1.078,0 1.953,-0.875 1.953,-1.953l0,-2.965c0,-1.079 -0.875,-1.954 -1.953,-1.954Z" style="fill:#232d6a;fill-rule:nonzero;"/><path d="M67.42,58.135c-1.078,0 -1.953,0.872 -1.953,1.954l0,2.959c0,1.081 0.875,1.953 1.953,1.953c1.078,0 1.953,-0.872 1.953,-1.953l0,-2.959c0,-1.082 -0.875,-1.954 -1.953,-1.954Z" style="fill:#232d6a;fill-rule:nonzero;"/><path d="M67.42,129.332c-1.078,0 -1.953,0.875 -1.953,1.953l0,1.554c0,1.081 0.875,1.953 1.953,1.953c1.078,0 1.953,-0.872 1.953,-1.953l0,-1.554c0,-1.078 -0.875,-1.953 -1.953,-1.953Z" style="fill:#232d6a;fill-rule:nonzero;"/><path d="M101.661,95.151c-1.047,-0.234 -2.091,0.441 -2.322,1.494c-1.05,4.818 -3.822,25.753 -2.309,36.912c0.134,0.981 0.972,1.691 1.928,1.691l0.269,-0.019c1.068,-0.144 1.818,-1.125 1.668,-2.197c-1.447,-10.693 1.241,-30.894 2.26,-35.556c0.231,-1.053 -0.441,-2.094 -1.494,-2.325Z" style="fill:#232d6a;fill-rule:nonzero;"/><path d="M110.133,116.342c-0.05,-0.944 -0.185,-5.11 -0.219,-10.21c-0.012,-1.922 -0.006,-3.506 0,-4.559c0.003,-0.497 -0.184,-0.978 -0.519,-1.341c-0.687,-0.744 -1.878,-2.903 -2.6,-5.103c-0.337,-1.025 -1.434,-1.584 -2.465,-1.244c-1.025,0.338 -1.582,1.441 -1.244,2.466c0.719,2.2 1.862,4.484 2.916,5.897c-0.004,1.019 -0.004,2.356 0.006,3.912c0.031,4.778 0.162,9.116 0.222,10.378c0.309,6.135 1.965,9.807 5.262,17.107c0.328,0.722 1.038,1.147 1.781,1.147l0.807,-0.172c0.981,-0.444 1.418,-1.603 0.972,-2.585c-3.191,-7.065 -4.647,-10.293 -4.919,-15.693Z" style="fill:#232d6a;fill-rule:nonzero;"/><path d="M133.286,112.16c-1.894,-7.997 -6.266,-13.468 -6.756,-14.065c-0.447,-0.544 -0.866,-1.022 -1.232,-1.425c0.26,-2.472 0.435,-4.975 0.525,-7.45c0.185,-4.938 0.329,-8.838 -0.403,-13.766c-0.368,-2.497 -0.778,-3.953 -1.106,-5.125c-0.384,-1.372 -0.662,-2.362 -0.787,-4.581c-0.094,-1.61 -0.016,-2.428 0.096,-3.672c0.1,-1.063 0.222,-2.378 0.288,-4.584c0.062,-2.122 0.197,-6.535 -0.4,-11.347c-0.663,-5.378 -1.103,-8.932 -3.375,-12.96c-1.259,-2.24 -4.909,-7.743 -11.525,-10.5c-2.413,-1 -5.053,-1.547 -10.309,-2.634l-1.3,-0.263c-1.935,-0.387 -3.335,-0.668 -5.304,-1.415c-2.6,-0.984 -4.44,-2.106 -5.475,-3.334c-1.284,-1.526 -1.631,-2.829 -1.671,-2.979c-0.16,-0.64 -0.219,-1.312 -0.169,-2.15l-0.106,-7.984c-0.013,-1.069 -0.885,-1.925 -1.954,-1.925l-0.025,0c-1.078,0.012 -1.94,0.9 -1.928,1.978l0.11,7.828c-0.072,1.094 0.022,2.175 0.284,3.203c0.131,0.535 0.706,2.444 2.469,4.541c1.49,1.772 3.806,3.234 7.084,4.475c2.266,0.859 3.878,1.181 5.919,1.591l1.272,0.259c5.015,1.037 7.534,1.556 9.603,2.419c5.65,2.35 8.791,7.334 9.622,8.806c1.894,3.359 2.25,6.259 2.903,11.538c0.556,4.499 0.434,8.556 0.372,10.734c-0.066,2.09 -0.181,3.337 -0.272,4.347c-0.122,1.312 -0.219,2.35 -0.109,4.247c0.146,2.643 0.525,3.99 0.925,5.418c0.315,1.119 0.671,2.388 1.006,4.644c0.678,4.569 0.54,8.309 0.362,13.047c-0.097,2.675 -0.3,5.384 -0.6,8.05c-0.065,0.575 0.128,1.147 0.525,1.566c0.428,0.45 1.013,1.09 1.669,1.887c0.172,0.206 4.25,5.219 5.969,12.484c1.69,7.141 1.409,19.604 1.406,19.729c-0.025,1.078 0.828,1.975 1.906,2l0.047,0c1.056,0 1.928,-0.844 1.953,-1.907c0.013,-0.528 0.297,-13.087 -1.509,-20.725Z" style="fill:#232d6a;fill-rule:nonzero;"/><path d="M60.03,77.698l-15.2,14.103l-0.025,0.034l-0.035,0.025c-3.422,3.463 -8.54,4.488 -13.028,2.604c-6.034,-2.532 -8.89,-9.497 -6.362,-15.535l10.553,-25.197c0.234,-0.556 0.903,-0.837 1.465,-0.6c0.557,0.235 0.832,0.903 0.597,1.463l-5.881,14.05c-0.419,0.997 0.053,2.14 1.047,2.556l0.753,0.153c0.763,0 1.488,-0.45 1.803,-1.2l5.878,-14.041l0.007,-0.006l0.003,-0.015l2.903,-6.932c0.234,-0.559 0.903,-0.834 1.465,-0.6c0.56,0.235 0.832,0.903 0.6,1.463l-4.371,10.434l-3.225,7.697c-0.416,0.994 0.053,2.138 1.046,2.556c1.004,0.419 2.144,-0.053 2.56,-1.047l7.594,-18.131l0.003,-0.012l1.606,-3.831c0.234,-0.56 0.903,-0.838 1.462,-0.601c0.56,0.235 0.835,0.907 0.6,1.466l-1.609,3.844l-7.594,18.131c-0.415,0.994 0.053,2.138 1.047,2.556c1,0.413 2.141,-0.053 2.556,-1.05l2.204,-5.259l5.39,-12.872c0.241,-0.559 0.913,-0.834 1.466,-0.597c0.556,0.235 0.831,0.903 0.597,1.463l-11.366,27.134l-0.056,0.288l-0.085,0.421l0.054,0.379l0.071,0.356l0.241,0.4l0.134,0.225l0.022,0.015l0.332,0.244l0.306,0.21l0.028,0.018l0.284,0.057l0.428,0.084l0.041,0.009l0.1,-0.028c0.288,-0.015 0.566,-0.103 0.828,-0.247l0.216,-0.128l0.172,-0.103l8.775,-7.975c0.406,-0.375 1.012,-0.472 1.406,-0.222c0.409,0.256 0.522,0.61 0.544,0.86c0.034,0.356 -0.094,0.693 -0.35,0.931Zm1.884,-5.1c-1.897,-1.191 -4.422,-0.922 -6.125,0.653l-2.244,2.041l7.963,-19.013c0.515,-1.234 0.522,-2.6 0.012,-3.844c-0.509,-1.247 -1.472,-2.215 -2.706,-2.731c-0.381,-0.159 -0.769,-0.253 -1.159,-0.312c0.625,-2.382 -0.563,-4.928 -2.897,-5.907c-2.331,-0.972 -4.978,-0.037 -6.241,2.078c-0.315,-0.237 -0.656,-0.446 -1.034,-0.606c-2.553,-1.065 -5.506,0.141 -6.578,2.694l-1.022,2.434c-0.3,-0.212 -0.622,-0.406 -0.978,-0.556c-2.553,-1.065 -5.5,0.141 -6.575,2.694l-10.553,25.2c-3.36,8.022 0.434,17.281 8.459,20.644c1.984,0.831 4.062,1.234 6.119,1.234c4.081,0 8.068,-1.6 11.09,-4.609l0.044,-0.025l15.197,-14.104c1.153,-1.068 1.731,-2.584 1.584,-4.156c-0.147,-1.569 -1.003,-2.959 -2.356,-3.809Z" style="fill:#2a9d8e;fill-rule:nonzero;"/><path d="M109.473,88.013c-1.2,2.935 -3.471,5.225 -6.396,6.451c-4.497,1.881 -9.61,0.856 -13.029,-2.604l-0.037,-0.025l-0.022,-0.034l-15.2,-14.103c-0.256,-0.238 -0.384,-0.575 -0.35,-0.931c0.022,-0.25 0.138,-0.604 0.544,-0.86c0.39,-0.25 0.997,-0.156 1.419,0.235l8.762,7.962l0.172,0.103l0.216,0.128c0.262,0.144 0.54,0.235 0.831,0.247l0.097,0.028l0.04,-0.009l0.45,-0.091l0.26,-0.05l0.028,-0.018l0.334,-0.225l0.303,-0.225l0.025,-0.019l0.144,-0.244l0.231,-0.381l0.072,-0.363l0.053,-0.372l-0.084,-0.428l-0.056,-0.281l-11.366,-27.134l0.003,-0.853l0.597,-0.61c0.559,-0.237 1.228,0.038 1.463,0.6l7.593,18.131c0.419,0.994 1.557,1.46 2.56,1.047c0.993,-0.418 1.462,-1.562 1.047,-2.559l-2.204,-5.256l0,-0.003l-7.003,-16.713c-0.234,-0.559 0.041,-1.231 0.6,-1.466c0.553,-0.231 1.228,0.041 1.463,0.601l7,16.712l0.003,0.003l2.2,5.259c0.419,0.994 1.559,1.463 2.556,1.047c0.997,-0.415 1.466,-1.562 1.05,-2.556l-2.203,-5.259l-0.962,-2.294l-4.429,-10.575l-0.003,-0.856l0.6,-0.61c0.557,-0.228 1.232,0.041 1.466,0.597l8.791,20.997c0.312,0.75 1.04,1.2 1.803,1.2l0.753,-0.153c0.99,-0.416 1.465,-1.559 1.044,-2.556l-5.879,-14.047c-0.234,-0.56 0.041,-1.231 0.597,-1.466c0.56,-0.231 1.232,0.041 1.466,0.6l10.55,25.197l0,0.003c1.225,2.922 1.241,6.15 0.037,9.081Zm3.569,-10.593l0,-0.003l-10.556,-25.194c-1.069,-2.553 -4.019,-3.769 -6.572,-2.691c-0.356,0.147 -0.681,0.341 -0.981,0.556l-1.022,-2.437c-1.069,-2.556 -4.022,-3.766 -6.572,-2.694c-0.403,0.166 -0.756,0.397 -1.091,0.647c-0.55,-0.931 -1.318,-1.709 -2.343,-2.128c-1.247,-0.513 -2.613,-0.506 -3.844,0.012c-2.334,0.976 -3.522,3.522 -2.897,5.904c-0.394,0.062 -0.781,0.156 -1.159,0.312c-1.235,0.516 -2.194,1.484 -2.703,2.731c-0.513,1.244 -0.507,2.61 0.009,3.844l7.962,19.013l-2.231,-2.029c-1.712,-1.584 -4.237,-1.859 -6.137,-0.665c-1.35,0.85 -2.21,2.237 -2.357,3.809c-0.143,1.572 0.432,3.088 1.585,4.153l15.197,14.107l0.043,0.025c3.022,3.009 7.01,4.609 11.091,4.609c2.056,0 4.134,-0.403 6.122,-1.234c3.887,-1.629 6.906,-4.672 8.5,-8.572c1.6,-3.9 1.584,-8.188 -0.044,-12.075Z" style="fill:#2a9d8e;fill-rule:nonzero;"/></svg>