<?xml version="1.0" encoding="UTF-8" standalone="no"?><!DOCTYPE svg PUBLIC "-//W3C//DTD SVG 1.1//EN" "http://www.w3.org/Graphics/SVG/1.1/DTD/svg11.dtd"><svg width="100%" height="100%" viewBox="0 0 135 135" version="1.1" xmlns="http://www.w3.org/2000/svg" xmlns:xlink="http://www.w3.org/1999/xlink" xml:space="preserve" xmlns:serif="http://www.serif.com/" style="fill-rule:evenodd;clip-rule:evenodd;stroke-linejoin:round;stroke-miterlimit:1.41421;"><path d="M37.016,134.794c-2.319,0 -4.507,-0.894 -6.166,-2.519c-3.469,-3.4 -3.522,-8.987 -0.122,-12.453l18.919,-19.338l-0.066,-9.14c-0.006,-1.078 0.863,-1.96 1.941,-1.966c1.172,-0.062 1.959,0.86 1.965,1.938l0.072,9.943c0.003,0.516 -0.197,1.013 -0.556,1.379l-19.484,19.915c-0.919,0.938 -1.416,2.172 -1.403,3.481c0.012,1.31 0.534,2.535 1.468,3.45c1.928,1.891 5.041,1.863 6.935,-0.068l20.968,-21.516c0.929,-0.956 1.285,-1.391 1.566,-2.091c0.4,-1.003 1.541,-1.487 2.538,-1.087c1.003,0.4 1.49,1.537 1.087,2.541c-0.569,1.421 -1.384,2.328 -2.394,3.362l-20.972,21.522c-1.653,1.684 -3.856,2.622 -6.209,2.647l-0.087,0Z" style="fill:#232d6a;fill-rule:nonzero;"/><path d="M51.069,77.059c-1.05,0 -1.919,-0.837 -1.95,-1.896l-0.006,-0.672l0,-24.672c0,-7.356 5.984,-13.341 13.34,-13.341c7.353,0 13.338,5.985 13.338,13.341l0,25.287c0,1.078 -0.875,1.953 -1.954,1.953c-1.078,0 -1.953,-0.875 -1.953,-1.953l0,-25.287c0,-5.203 -4.231,-9.435 -9.431,-9.435c-5.203,0 -9.434,4.232 -9.434,9.435l0.003,25.228c0.034,1.081 -0.813,1.981 -1.891,2.009l-0.062,0.003Z" style="fill:#232d6a;fill-rule:nonzero;"/><path d="M83.816,134.788c-1.272,0 -2.538,-0.272 -3.71,-0.819c-2.253,-1.047 -3.965,-3.006 -4.7,-5.381l-5.978,-18.535c-1.078,-3.484 -2.975,-6.694 -5.491,-9.303l-7.262,-7.525c-3.078,-3.191 -5.25,-6.862 -6.45,-10.912c-0.306,-1.035 0.281,-2.122 1.316,-2.429c1.037,-0.306 2.121,0.282 2.428,1.316c1.022,3.444 2.878,6.578 5.518,9.313l7.26,7.525c2.94,3.046 5.156,6.793 6.406,10.837l5.975,18.534c0.419,1.344 1.372,2.438 2.625,3.019c1.275,0.594 2.691,0.613 3.997,0.063c2.125,-0.9 3.381,-3.916 2.634,-6.332l-7.734,-24.218c-0.222,-0.716 -0.491,-1.397 -0.809,-2.053l-5.538,-11.413c-0.653,-1.347 -1.181,-2.762 -1.575,-4.209c-0.281,-1.041 0.335,-2.113 1.375,-2.394c1.034,-0.291 2.113,0.331 2.394,1.372c0.331,1.212 0.775,2.397 1.322,3.525l5.537,11.412c0.403,0.832 0.747,1.703 1.019,2.591l7.737,24.219c1.344,4.347 -0.875,9.422 -4.843,11.097c-1.103,0.465 -2.282,0.7 -3.453,0.7Z" style="fill:#232d6a;fill-rule:nonzero;"/><path d="M61.881,3.906c-5.975,0 -11.215,6.738 -11.215,14.419c0,8.328 0.475,12.328 11.215,12.328c10.738,0 11.216,-4 11.216,-12.328c0,-7.681 -5.241,-14.419 -11.216,-14.419Zm0,30.653c-14.006,0 -15.122,-7.034 -15.122,-16.234c0,-9.934 6.925,-18.325 15.122,-18.325c8.197,0 15.122,8.391 15.122,18.325c0,9.2 -1.116,16.234 -15.122,16.234Z" style="fill:#232d6a;fill-rule:nonzero;"/><path d="M132.841,134.794l-6.65,0c-1.079,0 -1.954,-0.875 -1.954,-1.953l0,-41.841c0,-4.019 -3.271,-7.291 -7.29,-7.291l-47.047,0c-1.078,0 -1.953,-0.875 -1.953,-1.953c0,-1.078 0.875,-1.953 1.953,-1.953l47.047,0c6.175,0 11.197,5.022 11.197,11.197l0,39.888l2.744,0l0,-41.007c0,-7.069 -5.751,-12.822 -12.822,-12.822l-49.119,0c-1.078,0 -1.953,-0.875 -1.953,-1.953c0,-1.078 0.875,-1.953 1.953,-1.953l49.119,0c9.225,0 16.728,7.503 16.728,16.728l0,42.96c0,1.078 -0.872,1.953 -1.953,1.953Z" style="fill:#2a9d8e;fill-rule:nonzero;"/><path d="M8.606,134.794l-6.653,0c-1.078,0 -1.953,-0.875 -1.953,-1.953l0,-42.96c0,-9.225 7.506,-16.728 16.731,-16.728l41.65,0c1.078,0 1.953,0.875 1.953,1.953c0,1.078 -0.875,1.953 -1.953,1.953l-41.65,0c-7.072,0 -12.825,5.754 -12.825,12.822l0,41.007l2.747,0l0,-39.888c0,-6.175 5.022,-11.197 11.197,-11.197l45.147,0c1.081,0 1.953,0.875 1.953,1.953c0,1.078 -0.872,1.953 -1.953,1.953l-45.147,0c-4.022,0 -7.291,3.272 -7.291,7.291l0,41.841c0,1.078 -0.875,1.953 -1.953,1.953Z" style="fill:#2a9d8e;fill-rule:nonzero;"/><path d="M62.197,45.378c-1.003,0 -2.11,0.453 -2.335,1.788l-2.465,14.812c-0.713,4.203 0.212,8.456 2.6,11.984l4.415,6.519c0.75,1.103 2.257,1.394 3.357,0.644c1.103,-0.75 1.39,-2.25 0.647,-3.356l-4.71,-6.813c-1.525,-2.206 -2.119,-4.881 -1.665,-7.528l2.603,-15.219c0.109,-0.64 -0.035,-1.284 -0.413,-1.812c-0.378,-0.531 -0.937,-0.878 -1.578,-0.984l-0.456,-0.035Zm4.228,40.066c-2.028,0 -4.025,-0.969 -5.247,-2.772l-4.415,-6.519c-2.957,-4.365 -4.097,-9.628 -3.219,-14.822l2.465,-14.812c0.575,-3.381 3.61,-5.463 7.232,-4.969c1.728,0.284 3.19,1.2 4.171,2.584c0.985,1.382 1.369,3.063 1.085,4.735l-2.606,15.215c-0.278,1.638 0.084,3.288 1.028,4.65l4.718,6.822l0.01,0.016c1.956,2.887 1.2,6.828 -1.684,8.784c-1.085,0.735 -2.319,1.088 -3.538,1.088Z" style="fill:#232d6a;fill-rule:nonzero;"/></svg>