<?xml version="1.0" encoding="UTF-8" standalone="no"?><!DOCTYPE svg PUBLIC "-//W3C//DTD SVG 1.1//EN" "http://www.w3.org/Graphics/SVG/1.1/DTD/svg11.dtd"><svg width="100%" height="100%" viewBox="0 0 135 135" version="1.1" xmlns="http://www.w3.org/2000/svg" xmlns:xlink="http://www.w3.org/1999/xlink" xml:space="preserve" xmlns:serif="http://www.serif.com/" style="fill-rule:evenodd;clip-rule:evenodd;stroke-linejoin:round;stroke-miterlimit:1.41421;"><path d="M61.925,16.994l0.044,-0.8l0.525,-0.272l9.806,0l0.525,0.272l0.044,0.8c-1.85,4.272 -1.85,8.603 0,12.875l-0.044,0.797l-0.525,0.275l-4.903,0l-4.903,0l-0.525,-0.272l-0.044,-0.803c1.847,-4.269 1.847,-8.6 0,-12.872Zm-3.219,15.818c0.835,1.276 2.253,2.035 3.788,2.035l9.806,0c1.537,0 2.953,-0.759 3.791,-2.035c0.871,-1.328 1.006,-3.009 0.362,-4.496c-1.422,-3.285 -1.422,-6.482 0,-9.769c0.644,-1.488 0.509,-3.169 -0.362,-4.497c-0.838,-1.275 -2.254,-2.034 -3.791,-2.034l-4.903,0l-4.903,0c-1.535,0 -2.953,0.759 -3.788,2.031c-0.872,1.328 -1.009,3.009 -0.365,4.497c1.421,3.29 1.421,6.487 0,9.772c-0.644,1.487 -0.507,3.172 0.365,4.496Z" style="fill:#2a9d8e;fill-rule:nonzero;"/><path d="M61.925,42.438l0.044,-0.8l0.525,-0.272l9.806,0l0.525,0.272l0.044,0.8c-1.85,4.268 -1.85,8.6 0,12.875l-0.044,0.796l-0.525,0.272l-4.903,0l-4.903,0l-0.525,-0.272l-0.044,-0.8c1.847,-4.271 1.847,-8.603 0,-12.871Zm-3.222,15.815c0.838,1.275 2.256,2.035 3.791,2.035l9.806,0c1.537,0 2.953,-0.76 3.791,-2.035c0.871,-1.328 1.006,-3.009 0.362,-4.494c-1.422,-3.287 -1.422,-6.484 0,-9.771c0.644,-1.488 0.509,-3.169 -0.362,-4.494c-0.838,-1.275 -2.254,-2.035 -3.791,-2.035l-4.903,0l-4.903,0c-1.535,0 -2.953,0.76 -3.788,2.032c-0.872,1.328 -1.009,3.009 -0.365,4.497c1.421,3.287 1.421,6.484 0,9.771c-0.644,1.488 -0.507,3.169 0.362,4.494Z" style="fill:#2a9d8e;fill-rule:nonzero;"/><path d="M72.869,80.753l-0.044,0.8l-0.525,0.269l-4.903,0l-4.903,0l-0.525,-0.269l-0.044,-0.803c1.847,-4.269 1.847,-8.6 0,-12.869l0.044,-0.803l0.525,-0.272l9.806,0l0.525,0.275l0.044,0.8c-1.85,4.269 -1.85,8.6 0,12.872Zm3.222,-15.819c-0.838,-1.275 -2.254,-2.034 -3.791,-2.034l-4.903,0l-4.903,0c-1.535,0 -2.953,0.759 -3.788,2.034c-0.872,1.325 -1.009,3.01 -0.365,4.497c1.421,3.285 1.421,6.482 0,9.769c-0.644,1.488 -0.507,3.169 0.365,4.497c0.835,1.272 2.253,2.031 3.788,2.031l9.806,0c1.537,0 2.953,-0.759 3.791,-2.031c0.871,-1.328 1.006,-3.009 0.362,-4.497c-1.422,-3.287 -1.422,-6.484 0,-9.769c0.644,-1.487 0.509,-3.168 -0.362,-4.497Z" style="fill:#2a9d8e;fill-rule:nonzero;"/><path d="M72.869,106.194l-0.044,0.8l-0.525,0.272l-4.903,0l-4.903,0l-0.525,-0.272l-0.044,-0.8c1.847,-4.269 1.847,-8.603 0,-12.872l0.044,-0.803l0.525,-0.272l9.806,0l0.525,0.275l0.044,0.8c-1.85,4.269 -1.85,8.603 0,12.872Zm3.222,-15.816c-0.838,-1.275 -2.254,-2.037 -3.791,-2.037l-4.903,0l-4.903,0c-1.535,0 -2.953,0.762 -3.788,2.034c-0.872,1.328 -1.009,3.009 -0.365,4.497c1.421,3.287 1.421,6.484 0,9.772c-0.644,1.487 -0.507,3.168 0.365,4.497c0.835,1.275 2.253,2.031 3.788,2.031l9.806,0c1.537,0 2.953,-0.756 3.791,-2.034c0.871,-1.329 1.006,-3.01 0.362,-4.494c-1.422,-3.288 -1.422,-6.485 0,-9.769c0.644,-1.487 0.509,-3.169 -0.362,-4.497Z" style="fill:#2a9d8e;fill-rule:nonzero;"/><path d="M71.163,117.156c-2.282,1.494 -5.232,1.494 -7.529,0c-7.134,-4.678 -15.006,-7.347 -22.165,-7.519c-7.491,-0.178 -13.378,2.385 -16.547,7.219c-2.941,4.485 -3.153,10.419 -0.6,16.722c0.309,0.76 1.04,1.219 1.809,1.219l0.735,-0.144c1,-0.403 1.481,-1.544 1.078,-2.544c-2.06,-5.071 -1.972,-9.731 0.243,-13.112c2.404,-3.663 7.057,-5.563 13.188,-5.456c6.441,0.156 13.587,2.6 20.137,6.897c3.585,2.334 8.213,2.331 11.791,-0.013c13.2,-8.659 28.141,-9.3 33.303,-1.428c2.213,3.381 2.3,8.041 0.247,13.112c-0.406,1.004 0.075,2.141 1.075,2.544c1.006,0.41 2.141,-0.075 2.544,-1.075c2.553,-6.303 2.337,-12.237 -0.6,-16.722c-6.341,-9.675 -23.71,-9.54 -38.709,0.3Z" style="fill:#2a9d8e;fill-rule:nonzero;"/><path d="M19.834,30.838c0.191,-0.582 0.594,-1.054 1.154,-1.335c0.318,-0.165 0.665,-0.247 1.018,-0.247l0.7,0.11c0.585,0.19 1.063,0.597 1.341,1.15c3.337,6.584 13.89,12.147 27.534,14.512c1.244,0.216 2.078,1.4 1.863,2.644c-0.213,1.231 -1.469,2.056 -2.644,1.862c-15.269,-2.65 -26.794,-8.987 -30.831,-16.953c-0.278,-0.544 -0.325,-1.162 -0.135,-1.743Zm30.307,22.546c0.35,0.06 0.706,0.091 1.053,0.091c3.018,0 5.584,-2.163 6.097,-5.134c0.584,-3.366 -1.675,-6.575 -5.044,-7.163c-12.075,-2.094 -22.01,-7.087 -24.716,-12.425c-0.75,-1.487 -2.037,-2.59 -3.619,-3.103c-1.581,-0.512 -3.253,-0.375 -4.703,0.375c-1.475,0.747 -2.572,2.022 -3.087,3.597c-0.516,1.575 -0.385,3.253 0.362,4.728c4.594,9.059 17.172,16.175 33.657,19.034Z" style="fill:#2a9d8e;fill-rule:nonzero;"/><path d="M19.834,56.281c0.191,-0.581 0.594,-1.053 1.154,-1.337c0.318,-0.163 0.665,-0.247 1.018,-0.247l0.7,0.112c0.585,0.188 1.063,0.597 1.341,1.147c3.337,6.585 13.887,12.147 27.531,14.513c1.244,0.215 2.081,1.403 1.866,2.647c-0.213,1.231 -1.469,2.059 -2.644,1.862c-15.269,-2.65 -26.794,-8.987 -30.831,-16.956c-0.278,-0.544 -0.325,-1.163 -0.135,-1.741Zm30.307,22.544c0.35,0.059 0.706,0.091 1.053,0.091c3.018,0 5.584,-2.16 6.097,-5.135c0.584,-3.362 -1.675,-6.575 -5.044,-7.162c-12.075,-2.094 -22.01,-7.088 -24.716,-12.425c-0.75,-1.488 -2.037,-2.588 -3.622,-3.103c-1.578,-0.507 -3.25,-0.372 -4.7,0.378c-1.475,0.744 -2.572,2.025 -3.087,3.597c-0.516,1.575 -0.385,3.253 0.362,4.725c4.591,9.059 17.169,16.175 33.657,19.034Z" style="fill:#2a9d8e;fill-rule:nonzero;"/><path d="M19.969,83.466c-0.278,-0.544 -0.325,-1.163 -0.135,-1.744c0.191,-0.581 0.594,-1.053 1.154,-1.335c0.318,-0.165 0.665,-0.246 1.018,-0.246l0.7,0.109c0.585,0.191 1.063,0.597 1.341,1.15c3.337,6.584 13.887,12.144 27.534,14.509c0.6,0.107 1.125,0.438 1.478,0.941c0.353,0.497 0.488,1.103 0.385,1.706c-0.213,1.228 -1.469,2.066 -2.644,1.863c-15.269,-2.65 -26.794,-8.985 -30.831,-16.953Zm31.225,20.89c3.018,0 5.584,-2.159 6.097,-5.134c0.587,-3.363 -1.675,-6.575 -5.044,-7.159c-12.075,-2.094 -22.01,-7.091 -24.716,-12.429c-0.75,-1.484 -2.037,-2.584 -3.622,-3.1c-1.578,-0.509 -3.25,-0.371 -4.7,0.375c-1.475,0.747 -2.572,2.025 -3.087,3.597c-0.516,1.575 -0.385,3.253 0.362,4.728c4.591,9.06 17.169,16.175 33.657,19.035c0.35,0.059 0.706,0.087 1.053,0.087Z" style="fill:#2a9d8e;fill-rule:nonzero;"/><path d="M81.734,45.966c0.35,-0.5 0.879,-0.835 1.482,-0.938c13.643,-2.365 24.193,-7.928 27.534,-14.515c0.275,-0.55 0.75,-0.957 1.337,-1.147l0.697,-0.11c0.353,0 0.707,0.085 1.038,0.253c0.54,0.275 0.947,0.747 1.137,1.329c0.188,0.581 0.141,1.199 -0.134,1.746c-4.038,7.963 -15.563,14.3 -30.819,16.947c-1.272,0.219 -2.44,-0.631 -2.656,-1.859c-0.103,-0.603 0.031,-1.209 0.384,-1.706Zm1.866,7.509c0.347,0 0.697,-0.031 1.062,-0.094c16.475,-2.856 29.054,-9.972 33.647,-19.031c0.747,-1.475 0.875,-3.156 0.36,-4.728c-0.513,-1.575 -1.61,-2.85 -3.072,-3.591c-1.466,-0.756 -3.138,-0.89 -4.716,-0.381c-1.584,0.513 -2.869,1.616 -3.619,3.1c-2.706,5.341 -12.64,10.334 -24.715,12.428c-1.631,0.285 -3.053,1.184 -4.006,2.538c-0.953,1.35 -1.322,2.993 -1.041,4.622c0.519,2.978 3.081,5.137 6.1,5.137Z" style="fill:#2a9d8e;fill-rule:nonzero;"/><path d="M114.825,58.025c-4.038,7.966 -15.563,14.303 -30.819,16.95c-1.272,0.222 -2.44,-0.631 -2.656,-1.862c-0.216,-1.241 0.622,-2.429 1.866,-2.644c13.643,-2.366 24.193,-7.928 27.534,-14.516c0.275,-0.547 0.75,-0.956 1.337,-1.144l0.697,-0.112c0.353,0 0.707,0.087 1.038,0.256c0.54,0.275 0.947,0.747 1.137,1.328c0.188,0.581 0.141,1.197 -0.134,1.744Zm0.772,-6.55c-1.466,-0.759 -3.138,-0.894 -4.713,-0.384c-1.587,0.515 -2.872,1.615 -3.622,3.1c-2.706,5.34 -12.64,10.334 -24.718,12.428c-3.366,0.587 -5.628,3.8 -5.044,7.162c0.519,2.975 3.081,5.135 6.1,5.135c0.347,0 0.697,-0.032 1.062,-0.091c16.479,-2.859 29.057,-9.975 33.647,-19.034c0.747,-1.475 0.875,-3.153 0.363,-4.728c-0.516,-1.572 -1.613,-2.85 -3.075,-3.588Z" style="fill:#2a9d8e;fill-rule:nonzero;"/><path d="M114.825,83.466c-4.038,7.968 -15.563,14.303 -30.819,16.953c-1.272,0.212 -2.44,-0.635 -2.656,-1.866c-0.103,-0.6 0.031,-1.206 0.384,-1.703c0.353,-0.503 0.879,-0.834 1.482,-0.941c13.643,-2.365 24.193,-7.925 27.534,-14.512c0.275,-0.55 0.75,-0.956 1.337,-1.147l0.697,-0.109c0.353,0 0.707,0.084 1.038,0.253c0.54,0.275 0.947,0.747 1.137,1.328c0.188,0.581 0.141,1.2 -0.134,1.744Zm3.847,-2.96c-0.516,-1.572 -1.613,-2.85 -3.075,-3.587c-1.466,-0.76 -3.138,-0.897 -4.713,-0.385c-1.587,0.516 -2.872,1.616 -3.622,3.097c-2.706,5.341 -12.64,10.338 -24.715,12.432c-1.631,0.284 -3.053,1.184 -4.006,2.534c-0.953,1.353 -1.322,2.997 -1.041,4.625c0.516,2.975 3.081,5.134 6.1,5.134c0.347,0 0.697,-0.028 1.062,-0.087c16.479,-2.86 29.057,-9.975 33.647,-19.035c0.747,-1.475 0.875,-3.156 0.363,-4.728Z" style="fill:#2a9d8e;fill-rule:nonzero;"/><path d="M20.794,3.906c-9.313,0 -16.888,7.575 -16.888,16.888l0,93.206c0,9.313 7.575,16.888 16.888,16.888l93.206,0c9.312,0 16.888,-7.575 16.888,-16.888l0,-93.206c0,-9.313 -7.576,-16.888 -16.888,-16.888l-93.206,0Zm93.206,130.888l-93.206,0c-11.466,0 -20.794,-9.328 -20.794,-20.794l0,-93.206c0,-11.466 9.328,-20.794 20.794,-20.794l93.206,0c11.466,0 20.794,9.328 20.794,20.794l0,93.206c0,11.466 -9.328,20.794 -20.794,20.794Z" style="fill:#232d6a;fill-rule:nonzero;"/></svg>